# xmcd
#
# Track frame offsets:
# 150
# 9519
# 13456
# 21015
# 33540
# 43287
# 53959
# 59412
# 62853
# 67331
# 71162
# 79818
# 86636
# 92821
# 95358
# 101727
# 111319
# 114529
# 135325
# 166828
# 177353
# 186564
# 201636
# 206476
# 215538
# 226672
# 231651
# 239547
# 250264
# 267107
# 275752
# 286847
# 315417
# 334652
# 342456
# 351089
#
# Disc length: 4800 seconds
#
# Revision: 0
# Processed by: cddbd v1.5.1PL2 Copyright (c) Steve Scherf et al.
# Submitted via: Audion 3.0.2 (http://www.panic.com/audion/)
#
DISCID=3512be24
DTITLE=k - send it 
DYEAR=1900
DGENRE=
TTITLE0=j
TTITLE1=j
TTITLE2=j
TTITLE3=j
TTITLE4=j
TTITLE5=j
TTITLE6=j
TTITLE7=j
TTITLE8=j
TTITLE9=j
TTITLE10=j
TTITLE11=j
TTITLE12=j
TTITLE13=j
TTITLE14=jj
TTITLE15=j
TTITLE16=j
TTITLE17=j
TTITLE18=j
TTITLE19=j
TTITLE20=j
TTITLE21=j
TTITLE22=j
TTITLE23=j
TTITLE24=j
TTITLE25=j
TTITLE26=j
TTITLE27=j
TTITLE28=j
TTITLE29=j
TTITLE30=j
TTITLE31=j
TTITLE32=j
TTITLE33=j
TTITLE34=j
TTITLE35=j
EXTD=
EXTT0=
EXTT1=
EXTT2=
EXTT3=
EXTT4=
EXTT5=
EXTT6=
EXTT7=
EXTT8=
EXTT9=
EXTT10=
EXTT11=
EXTT12=
EXTT13=
EXTT14=
EXTT15=
EXTT16=
EXTT17=
EXTT18=
EXTT19=
EXTT20=
EXTT21=
EXTT22=
EXTT23=
EXTT24=
EXTT25=
EXTT26=
EXTT27=
EXTT28=
EXTT29=
EXTT30=
EXTT31=
EXTT32=
EXTT33=
EXTT34=
EXTT35=
PLAYORDER=
